<svg width="40" height="48" viewBox="0 0 40 48" fill="none" xmlns="http://www.w3.org/2000/svg">
  <!-- Map Pin Gradient Definition -->
  <defs>
    <linearGradient id="pinGradient" x1="20" y1="0" x2="20" y2="44" gradientUnits="userSpaceOnUse">
      <stop offset="0%" stop-color="#3C6E71"/>
      <stop offset="100%" stop-color="#284B63"/>
    </linearGradient>
  </defs>
  
  <!-- Signal Waves - Left -->
  <path d="M 6 36 Q 2 38, 2 42" stroke="#EAE2B7" stroke-width="0.8" stroke-linecap="round" fill="none" opacity="0.9"/>
  <path d="M 8 38 Q 4 40, 4 44" stroke="#EAE2B7" stroke-width="0.8" stroke-linecap="round" fill="none" opacity="0.7"/>
  <path d="M 10 40 Q 6 42, 6 46" stroke="#EAE2B7" stroke-width="0.8" stroke-linecap="round" fill="none" opacity="0.5"/>
  
  <!-- Signal Waves - Right -->
  <path d="M 34 36 Q 38 38, 38 42" stroke="#EAE2B7" stroke-width="0.8" stroke-linecap="round" fill="none" opacity="0.9"/>
  <path d="M 32 38 Q 36 40, 36 44" stroke="#EAE2B7" stroke-width="0.8" stroke-linecap="round" fill="none" opacity="0.7"/>
  <path d="M 30 40 Q 34 42, 34 46" stroke="#EAE2B7" stroke-width="0.8" stroke-linecap="round" fill="none" opacity="0.5"/>
  
  <!-- Map Pin Shape with outline -->
  <path d="M 20 0 C 26.627 0 32 5.373 32 12 C 32 18 26 26 20 32 C 14 26 8 18 8 12 C 8 5.373 13.373 0 20 0 Z" fill="url(#pinGradient)" stroke="#EAE2B7" stroke-width="1"/>
  
  <!-- Speech Bubble -->
  <path d="M 14 10 C 14 8.895 14.895 8 16 8 L 24 8 C 25.105 8 26 8.895 26 10 L 26 16 C 26 17.105 25.105 18 24 18 L 18 18 L 16 21 L 16 18 C 14.895 18 14 17.105 14 16 Z" fill="#4A8A8E" stroke="#EAE2B7" stroke-width="0.8"/>
  
  <!-- Sound Wave Inside Bubble (wavy line) -->
  <path d="M 17.5 12.5 Q 18 11, 18.5 12.5 T 19.5 12.5 T 20.5 12.5 T 21.5 12.5 T 22.5 12.5" stroke="#284B63" stroke-width="1.5" stroke-linecap="round" fill="none"/>
  
  <!-- Pin Point -->
  <circle cx="20" cy="38" r="6" fill="url(#pinGradient)" stroke="#EAE2B7" stroke-width="1"/>
</svg>
